<svg width="360" height="468" viewBox="0 0 360 468" fill="none" xmlns="http://www.w3.org/2000/svg">
<path fill-rule="evenodd" clip-rule="evenodd" d="M87.7 364.81L41.93 338.96L272.99 205.57V155.88L0 313.49V366.05L89.99 416.87L180 467.7L270.01 416.87L360 366.05V313.55L269.24 364.81L178.47 416.06L87.7 364.81Z" fill="#282A36"/>
<path fill-rule="evenodd" clip-rule="evenodd" d="M358.29 0.820007C358.29 0.820007 358.29 144.49 358.29 215.2V267.21L269.58 317.31L180.86 367.4L134.81 341.4L188.33 311.17L269.58 265.29L313.93 240.24V78.09L269.16 103.38L179.59 153.96L90.02 103.38L46.06 78.55V181.63L87.6 157.65L130.69 182.53L0 257.98V51.86V0L89.79 50.71L179.59 101.42C239.45 67.62 299.32 33.81 359.18 0.0100098" fill="#D74127"/>
</svg>
