<svg width="1680" height="150" viewBox="0 0 1680 150" fill="none" xmlns="http://www.w3.org/2000/svg">
<path d="M333.44 104.925L229.17 0.655273H214.27V149.615H244.06V60.2353L333.44 149.615H363.23V0.655273H333.44V104.925Z" fill="#00F9FF"/>
<path d="M426.94 0.655273V149.615H397.15V0.655273H426.94Z" fill="#00F9FF"/>
<path d="M645.54 81.4154C652.3 87.1554 660.62 90.0254 670.49 90.0254H810.85C820.35 90.0254 828.57 87.1554 835.52 81.4154C842.46 75.6754 845.94 68.6154 845.94 60.2354H635.4C635.4 68.4654 638.78 75.5254 645.54 81.4154Z" fill="#00F9FF"/>
<path d="M638.72 141.005C645.96 146.745 654.88 149.615 665.46 149.615H815.88C826.06 149.615 834.87 146.745 842.32 141.005C849.76 135.265 853.48 128.205 853.48 119.825H627.86C627.86 128.055 631.48 135.115 638.73 141.005H638.72Z" fill="#00F9FF"/>
<path d="M681.08 30.4453H800.25C808.32 30.4453 815.3 27.5753 821.2 21.8353C827.09 16.0953 830.04 9.03527 830.04 0.655273H651.28C651.28 8.88527 654.15 15.9453 659.89 21.8353C665.63 27.5753 672.69 30.4453 681.07 30.4453H681.08Z" fill="#00F9FF"/>
<path d="M875.21 30.4453H1024.17V45.3453C1024.17 49.5353 1022.69 53.1053 1019.75 56.0553C1016.8 58.8453 1013.31 60.2453 1009.28 60.2453H875.21V149.625H905V90.0353H949.69L1009.28 149.625H1053.97L994.38 90.0353H1024.17C1032.24 90.0353 1039.22 87.1653 1045.12 81.4253C1051.01 75.6853 1053.96 68.6253 1053.96 60.2453V0.655273H905C888.55 0.655273 875.21 13.9953 875.21 30.4453Z" fill="#00F9FF"/>
<path d="M1143.35 30.4453H1232.73C1240.8 30.4453 1247.78 27.5753 1253.68 21.8353C1259.57 16.0953 1262.52 9.03527 1262.52 0.655273H1140.84C1109.32 0.655273 1083.76 26.2053 1083.76 57.7253V90.0253H1232.73C1232.73 106.475 1219.39 119.815 1202.94 119.815H1113.56C1105.33 119.815 1098.27 122.765 1092.38 128.655C1086.64 134.395 1083.77 141.385 1083.77 149.605H1205.1C1236.82 149.605 1262.53 123.895 1262.53 92.1753V60.2253H1113.57C1113.57 43.7753 1126.91 30.4353 1143.36 30.4353L1143.35 30.4453Z" fill="#00F9FF"/>
<path d="M1441.28 119.825H1322.11V0.655273H1292.32V119.825C1292.32 128.055 1295.19 135.115 1300.93 141.005C1306.67 146.745 1313.73 149.615 1322.11 149.615H1441.28C1449.35 149.615 1456.33 146.745 1462.23 141.005C1468.12 135.265 1471.07 128.205 1471.07 119.825V0.655273H1441.28V119.825Z" fill="#00F9FF"/>
<path d="M590.42 0.655273L516.63 119.825H482.87V0.655273H453.08V119.825C453.08 128.055 455.95 135.115 461.69 141.005C467.43 146.745 474.49 149.615 482.87 149.615H520.4C530.37 149.615 539.62 144.435 544.83 135.945L627.85 0.655273H590.42Z" fill="#00F9FF"/>
<path d="M1560.45 30.4453H1649.83C1657.9 30.4453 1664.88 27.5753 1670.78 21.8353C1676.67 16.0953 1679.62 9.03527 1679.62 0.655273H1557.94C1526.42 0.655273 1500.86 26.2053 1500.86 57.7253V90.0253H1649.82C1649.82 106.475 1636.48 119.815 1620.03 119.815H1530.65C1522.42 119.815 1515.36 122.765 1509.47 128.655C1503.73 134.395 1500.86 141.385 1500.86 149.605H1622.19C1653.91 149.605 1679.62 123.895 1679.62 92.1753V60.2253H1530.66C1530.66 43.7753 1544 30.4353 1560.45 30.4353V30.4453Z" fill="#00F9FF"/>
<path d="M148.96 119.825H29.79V0.655273H0V119.825C0 128.055 2.87 135.115 8.61 141.005C14.35 146.745 21.41 149.615 29.79 149.615H148.96C157.03 149.615 164.01 146.745 169.91 141.005C175.81 135.265 178.76 128.205 178.76 119.825V0.655273H148.97V119.825H148.96Z" fill="#00F9FF"/>
</svg>
