<svg width="142" height="48" viewBox="0 0 142 48" fill="none" xmlns="http://www.w3.org/2000/svg">
<g clip-path="url(#clip0_2251_58)">
<mask id="mask0_2251_58" style="mask-type:luminance" maskUnits="userSpaceOnUse" x="0" y="0" width="142" height="48">
<path d="M142 0H0V48H142V0Z" fill="white"/>
</mask>
<g mask="url(#mask0_2251_58)">
<path d="M87.9253 20.8777C88.4647 21.18 88.9772 21.5279 89.4573 21.9177V11.4287H82.4883V19.4207C84.3899 19.4761 86.252 19.9765 87.9253 20.8817" fill="#04A2E8"/>
<path d="M104.78 25.9384C103.968 24.4281 102.737 23.184 101.236 22.3554C99.6126 21.4851 97.7918 21.0487 95.9501 21.0884C94.7194 21.0831 93.496 21.2769 92.3271 21.6624C91.6015 21.8997 90.9085 22.2269 90.2642 22.6364C91.0025 23.3722 91.6307 24.2109 92.1292 25.1264C92.4003 25.6241 92.6343 26.1412 92.8292 26.6734C93.2545 26.5682 93.691 26.5142 94.1292 26.5124C94.7588 26.4839 95.3878 26.5813 95.9793 26.7988C96.5708 27.0164 97.113 27.3498 97.5742 27.7794C98.0188 28.2316 98.3645 28.7712 98.5895 29.3641C98.8145 29.957 98.9138 30.5901 98.8812 31.2234C98.9152 31.8538 98.8165 32.4844 98.5913 33.0742C98.3662 33.6641 98.0196 34.2 97.5742 34.6474C97.1102 35.0717 96.5671 35.4003 95.976 35.6145C95.3848 35.8286 94.7572 35.9241 94.1292 35.8954C93.6965 35.8937 93.2655 35.841 92.8452 35.7384C92.6471 36.2872 92.406 36.8195 92.1241 37.3304C91.6461 38.1927 91.0504 38.9843 90.3542 39.6824C92.0141 40.7742 93.968 41.3325 95.9542 41.2824C97.7866 41.3178 99.5982 40.8889 101.22 40.0354C102.724 39.2305 103.962 38.0063 104.784 36.5114C105.655 34.8883 106.091 33.0678 106.051 31.2264C106.085 29.3854 105.649 27.5661 104.784 25.9404" fill="#04A2E8"/>
<path d="M89.1934 40.6841H89.2184V40.6641L89.1934 40.6841Z" fill="#04A2E8"/>
<path d="M36.0029 21.6826H42.9719L46.7459 33.0076C46.7836 33.1211 46.8561 33.2198 46.953 33.2897C47.0499 33.3596 47.1664 33.3973 47.2859 33.3973C47.4055 33.3973 47.522 33.3596 47.6189 33.2897C47.7158 33.2198 47.7883 33.1211 47.8259 33.0076L51.5649 21.6836H58.5339L51.8519 37.6406C51.4736 38.5442 50.8367 39.3158 50.0212 39.8584C49.2057 40.4011 48.248 40.6906 47.2684 40.6906C46.2889 40.6906 45.3312 40.4011 44.5157 39.8584C43.7001 39.3158 43.0632 38.5442 42.6849 37.6406L36.0029 21.6826Z" fill="#04A2E8"/>
<path d="M60.3952 18.6789C59.7091 17.9861 59.3242 17.0504 59.3242 16.0754C59.3242 15.1003 59.7091 14.1647 60.3952 13.4719C61.1102 12.7981 62.0557 12.4229 63.0382 12.4229C64.0207 12.4229 64.9661 12.7981 65.6812 13.4719C66.026 13.8101 66.2998 14.2137 66.4868 14.659C66.6738 15.1043 66.7701 15.5824 66.7701 16.0654C66.7701 16.5483 66.6738 17.0265 66.4868 17.4718C66.2998 17.9171 66.026 18.3207 65.6812 18.6589C64.9655 19.3292 64.0227 19.7039 63.0421 19.7076C62.0615 19.7113 61.1159 19.3438 60.3952 18.6789ZM63.0482 21.6789C63.9722 21.6789 64.8584 22.0459 65.5117 22.6993C66.1651 23.3527 66.5322 24.2389 66.5322 25.1629V40.6829H59.5632V25.1669C59.5626 24.7091 59.6524 24.2557 59.8271 23.8326C60.0019 23.4095 60.2584 23.025 60.5818 22.7011C60.9053 22.3772 61.2895 22.1201 61.7123 21.9447C62.1352 21.7694 62.5884 21.679 63.0462 21.6789" fill="#04A2E8"/>
<path d="M90.647 25.9388C89.8348 24.4285 88.6043 23.1844 87.103 22.3558C85.4795 21.4854 83.6587 21.049 81.817 21.0888C80.586 21.0833 79.3621 21.2772 78.193 21.6628C77.1434 21.9918 76.1684 22.5231 75.323 23.2268V11.4268H68.354V40.6848H75.085V38.7848C76.9128 40.4706 79.3321 41.3669 81.817 41.2788C83.6495 41.3142 85.4611 40.8852 87.083 40.0318C88.587 39.2268 89.8251 38.0026 90.647 36.5078C91.5177 34.8843 91.9541 33.0635 91.914 31.2218C91.9476 29.3807 91.5116 27.5615 90.647 25.9358M83.44 34.6458C82.9759 35.0698 82.4328 35.3982 81.8416 35.6122C81.2505 35.8262 80.623 35.9215 79.995 35.8928C78.9858 35.9062 77.9947 35.624 77.144 35.0808L77.119 35.0648C76.5557 34.6839 76.0961 34.1686 75.7818 33.5656C75.4676 32.9625 75.3085 32.2907 75.319 31.6108V30.7908C75.3082 30.1115 75.4666 29.4401 75.78 28.8373C76.0934 28.2345 76.5518 27.7192 77.114 27.3378L77.141 27.3208C77.9919 26.778 78.9828 26.4958 79.992 26.5088C80.6216 26.4802 81.2506 26.5776 81.8422 26.7952C82.4337 27.0127 82.9759 27.3461 83.437 27.7758C83.8815 28.2282 84.2271 28.768 84.452 29.361C84.6768 29.9541 84.7759 30.5874 84.743 31.2208C84.7771 31.8511 84.6785 32.4816 84.4536 33.0714C84.2286 33.6612 83.8823 34.1972 83.437 34.6448" fill="#04A2E8"/>
<path d="M106.759 21.6823H113.487V24.0573C114.34 23.1408 115.419 22.4652 116.615 22.0983C118.058 21.6212 119.57 21.387 121.089 21.4053V26.7483C119.519 26.7198 117.956 26.9745 116.476 27.5003L116.436 27.5153C115.628 27.8382 114.937 28.3979 114.453 29.1209C113.969 29.8438 113.715 30.6963 113.724 31.5663V40.6843H106.755L106.759 21.6823Z" fill="#04A2E8"/>
<path d="M123.291 39.5571C122.567 38.9891 121.99 38.2561 121.607 37.4193C121.224 36.5825 121.048 35.6662 121.091 34.7471C121.037 33.8174 121.2 32.8877 121.567 32.032C121.935 31.1764 122.497 30.4183 123.209 29.8181C124.977 28.5616 127.124 27.9534 129.287 28.0961C130.326 28.0974 131.362 28.2104 132.376 28.4331C133.294 28.6197 134.185 28.919 135.029 29.3241V28.9241C135.029 26.8921 133.366 25.8761 130.04 25.8761C127.842 25.8494 125.665 26.309 123.665 27.2221V22.4311C124.729 21.97 125.847 21.6441 126.991 21.4611C128.403 21.2068 129.834 21.081 131.268 21.0851C134.806 21.0851 137.478 21.7911 139.286 23.2031C140.179 23.901 140.891 24.8027 141.363 25.8326C141.834 26.8625 142.052 27.9905 141.998 29.1221V39.0601C141.998 39.2733 141.956 39.4844 141.875 39.6814C141.793 39.8784 141.673 40.0573 141.523 40.2081C141.372 40.3588 141.193 40.4783 140.996 40.5598C140.799 40.6413 140.588 40.6832 140.374 40.6831H137.085C136.872 40.6832 136.661 40.6413 136.464 40.5598C136.267 40.4783 136.088 40.3588 135.937 40.2081C135.786 40.0573 135.667 39.8784 135.585 39.6814C135.503 39.4844 135.461 39.2733 135.461 39.0601C134.688 39.7836 133.77 40.3365 132.769 40.6831C131.573 41.0978 130.313 41.2989 129.047 41.2771C126.987 41.3746 124.955 40.7673 123.286 39.5551M133.403 36.5071C133.777 36.3388 134.126 36.1208 134.44 35.8591C134.627 35.698 134.776 35.4983 134.877 35.2737C134.978 35.0492 135.029 34.8053 135.026 34.5591C135.025 34.223 134.926 33.8946 134.742 33.6139C134.557 33.3331 134.294 33.1122 133.986 32.9781C133.09 32.5898 132.123 32.3942 131.146 32.4041C130.387 32.3559 129.634 32.5652 129.008 32.9981C128.754 33.2084 128.554 33.4759 128.423 33.7787C128.292 34.0815 128.235 34.4109 128.256 34.7401C128.24 35.0553 128.298 35.3699 128.425 35.6587C128.552 35.9475 128.746 36.2025 128.989 36.4031C129.606 36.8382 130.354 37.0479 131.107 36.9971C131.901 37.0015 132.687 36.8308 133.407 36.4971" fill="#04A2E8"/>
<path d="M23.8731 0.185441C22.5671 -0.423559 20.9641 0.662441 20.9641 0.662441C14.7476 5.13354 9.67631 11.0111 6.16406 17.8154C7.71532 18.9217 9.3397 19.9217 11.0261 20.8084C12.8673 17.5408 15.0372 14.4695 17.5021 11.6424C17.6296 11.4576 17.8184 11.3239 18.0351 11.265C18.2518 11.2061 18.4823 11.2257 18.6859 11.3204C18.8895 11.4152 19.053 11.5789 19.1475 11.7826C19.2419 11.9863 19.2613 12.2168 19.2021 12.4334C18.6204 16.1387 17.6621 19.7748 16.3421 23.2854C18.1047 24.0069 19.9142 24.6083 21.7581 25.0854C24.7108 18.02 25.9509 10.3565 25.3771 2.72044C25.3771 2.72044 25.1771 0.794441 23.8771 0.185441" fill="#6AE51A"/>
<path d="M1.65914 47.815C0.353137 47.206 0.159137 45.28 0.159137 45.28C-0.411856 37.6439 0.83096 29.9811 3.78614 22.917C5.63001 23.3941 7.43947 23.9955 9.20214 24.717C7.8821 28.2276 6.9238 31.8638 6.34214 35.569C6.28293 35.7856 6.30227 36.0161 6.39673 36.2198C6.4912 36.4236 6.6547 36.5873 6.85829 36.682C7.06187 36.7767 7.29241 36.7964 7.50908 36.7374C7.72575 36.6785 7.91458 36.5448 8.04214 36.36C10.507 33.5329 12.6769 30.4617 14.5181 27.194C16.2035 28.0809 17.8268 29.0808 19.3771 30.187C15.8649 36.9914 10.7936 42.8689 4.57714 47.34C4.57714 47.34 2.97714 48.426 1.66814 47.817" fill="#04A2E8"/>
</g>
</g>
<defs>
<clipPath id="clip0_2251_58">
<rect width="142" height="48" fill="white"/>
</clipPath>
</defs>
</svg>
